<?xml version="1.0" encoding="UTF-8" standalone="no"?><!-- Generator: Gravit.io --><svg xmlns="http://www.w3.org/2000/svg" xmlns:xlink="http://www.w3.org/1999/xlink" style="isolation:isolate" viewBox="0 0 194.354 226.238" width="194.354pt" height="226.238pt"><defs><clipPath id="_clipPath_CN9ZR1cXjCVEDYW2TUBPCEqS6VURg91L"><rect width="194.354" height="226.238"/></clipPath></defs><g clip-path="url(#_clipPath_CN9ZR1cXjCVEDYW2TUBPCEqS6VURg91L)"><defs><filter id="JPAU5IeKac8UA8UT8oiWGy4MYmQt3nQ1" x="-200%" y="-200%" width="400%" height="400%" filterUnits="objectBoundingBox" color-interpolation-filters="sRGB"><feGaussianBlur xmlns="http://www.w3.org/2000/svg" in="SourceGraphic" stdDeviation="2.146804531419514"/><feOffset xmlns="http://www.w3.org/2000/svg" dx="0" dy="0" result="pf_100_offsetBlur"/><feFlood xmlns="http://www.w3.org/2000/svg" flood-color="#000000" flood-opacity="0.65"/><feComposite xmlns="http://www.w3.org/2000/svg" in2="pf_100_offsetBlur" operator="in" result="pf_100_dropShadow"/><feBlend xmlns="http://www.w3.org/2000/svg" in="SourceGraphic" in2="pf_100_dropShadow"/></filter></defs><g filter="url(#JPAU5IeKac8UA8UT8oiWGy4MYmQt3nQ1)"><linearGradient id="_lgradient_0" x1="0.5707926066974573" y1="0.23038451432126972" x2="0.5772295029075403" y2="0.9454238812014318" gradientTransform="matrix(180.354,0,0,212.238,7,7)" gradientUnits="userSpaceOnUse"><stop offset="1.6666666666666667%" stop-opacity="1" style="stop-color:rgb(254,231,21)"/><stop offset="98.33333333333333%" stop-opacity="1" style="stop-color:rgb(195,117,0)"/></linearGradient><path d=" M 187.354 7 L 7 7 L 7 166.075 L 95.06 219.238 L 187.354 166.066 L 187.354 7 Z " fill-rule="evenodd" fill="url(#_lgradient_0)"/></g><g><path d=" M 66.94 169.298 C 66.415 168.992 65.256 167.476 64.364 165.928 C 62.976 163.519 62.79 163.358 63.07 164.809 C 63.692 168.022 61.818 167.53 60.743 164.198 C 60.455 163.304 59.88 162.572 59.465 162.572 C 59.051 162.572 57.97 161.133 57.064 159.375 C 55.659 156.647 54.703 155.673 50.548 152.738 C 43.117 147.487 41.345 145.833 40.372 143.241 C 39.889 141.953 39.242 140.218 38.934 139.387 C 38.434 138.036 38.248 137.943 37.185 138.512 C 36.531 138.862 33.843 141.188 31.213 143.681 C 28.582 146.174 26.006 148.221 25.489 148.23 C 24.971 148.239 22.915 148.359 20.92 148.496 C 18.821 148.641 17.151 148.52 16.959 148.209 C 16.777 147.913 16.07 147.672 15.389 147.672 C 14.707 147.672 13.72 147.197 13.195 146.617 C 12.386 145.722 12.299 144.98 12.625 141.738 C 12.836 139.635 13.231 137.777 13.503 137.608 C 13.776 137.44 14.352 136.456 14.784 135.422 C 15.708 133.21 19.047 131.468 25.09 130.045 C 27.176 129.553 29.208 129.051 29.607 128.928 C 30.129 128.767 29.933 128.232 28.904 127.008 C 26.335 123.955 25.439 121.395 24.073 113.209 C 22.736 105.191 20.389 96.537 19.384 95.916 C 18.66 95.468 18.722 93.624 19.469 93.375 C 19.872 93.24 19.688 92.405 18.927 90.913 C 17.693 88.494 17.422 86.444 18.336 86.444 C 18.644 86.444 19.498 86.838 20.232 87.319 C 21.791 88.341 21.845 88.157 20.755 85.547 C 19.78 83.214 19.691 80.484 20.59 80.484 C 20.946 80.484 21.952 81.154 22.826 81.974 L 24.415 83.464 L 24.064 81.505 C 23.871 80.427 23.866 79.147 24.053 78.66 C 24.471 77.569 25.682 77.501 26.083 78.546 C 26.245 78.97 27.048 80.372 27.866 81.662 L 29.354 84.006 L 29.931 81.066 C 30.653 77.387 31.606 76.976 32.418 79.993 C 32.757 81.252 33.435 82.893 33.925 83.641 L 34.815 84.999 L 35.115 83.73 C 35.28 83.032 35.687 82.37 36.019 82.259 C 36.611 82.061 42.763 90.981 44.798 94.986 C 47.02 99.361 48.66 105.865 48.66 110.304 C 48.66 114.291 48.774 114.73 50.245 116.372 C 51.812 118.121 51.882 118.14 56.206 118.009 C 60.372 117.883 60.78 117.98 64.678 120.021 C 68.711 122.133 70.822 123.956 70.857 125.357 C 70.868 125.785 70.495 125.959 69.927 125.793 C 66.455 124.773 64.834 124.801 63.661 125.903 C 63.005 126.519 61.495 127.342 60.305 127.73 C 58.714 128.25 58.094 128.771 57.963 129.701 C 57.678 131.713 59.253 132.935 62.667 133.349 C 64.35 133.553 66.15 133.939 66.667 134.208 C 67.184 134.477 68.567 136.702 69.741 139.152 C 70.915 141.603 73.479 146.033 75.439 148.998 C 77.399 151.963 79.003 154.706 79.003 155.094 C 79.003 155.482 78.515 155.799 77.919 155.799 C 77.323 155.799 76.835 155.86 76.835 155.935 C 76.836 156.009 77.323 157.353 77.919 158.921 C 79.33 162.632 79.297 163.026 77.606 162.702 C 76.118 162.418 76.139 162.261 77.165 165.959 C 77.684 167.828 76.116 167.504 73.586 165.218 C 71.145 163.013 70.834 163.531 72.245 167.449 C 72.675 168.641 73.03 169.677 73.034 169.751 C 73.038 169.826 72.607 169.887 72.075 169.887 C 71.542 169.887 70.344 168.895 69.412 167.682 L 67.717 165.476 L 68.013 167.682 C 68.336 170.092 68.327 170.106 66.94 169.298 L 66.94 169.298 Z " fill="rgb(0,0,0)"/><ellipse vector-effect="non-scaling-stroke" cx="61.425395156592394" cy="121.74577677376274" rx="0.4730734716539331" ry="0.8060055761433915" fill="rgb(255,255,255)"/></g><path d=" M 168.839 36.57 C 168.701 36.49 168.395 36.09 168.16 35.681 C 167.793 35.045 167.744 35.003 167.818 35.386 C 167.982 36.234 167.488 36.104 167.204 35.224 C 167.128 34.989 166.976 34.796 166.867 34.796 C 166.758 34.796 166.472 34.416 166.233 33.952 C 165.862 33.232 165.61 32.975 164.514 32.2 C 162.553 30.815 162.085 30.378 161.829 29.694 C 161.701 29.354 161.53 28.897 161.449 28.677 C 161.317 28.321 161.268 28.296 160.988 28.446 C 160.815 28.539 160.106 29.153 159.412 29.81 C 158.717 30.468 158.038 31.008 157.901 31.011 C 157.765 31.013 157.222 31.045 156.695 31.081 C 156.142 31.119 155.701 31.087 155.65 31.005 C 155.602 30.927 155.416 30.864 155.236 30.864 C 155.056 30.864 154.796 30.738 154.657 30.585 C 154.443 30.349 154.421 30.153 154.506 29.298 C 154.562 28.743 154.667 28.252 154.738 28.208 C 154.81 28.164 154.962 27.904 155.076 27.631 C 155.32 27.047 156.201 26.588 157.796 26.212 C 158.346 26.082 158.883 25.95 158.988 25.917 C 159.126 25.875 159.074 25.734 158.802 25.411 C 158.124 24.605 157.888 23.93 157.528 21.769 C 157.175 19.653 156.555 17.37 156.29 17.206 C 156.099 17.088 156.115 16.601 156.313 16.535 C 156.419 16.5 156.37 16.279 156.17 15.886 C 155.844 15.247 155.772 14.706 156.014 14.706 C 156.095 14.706 156.32 14.81 156.514 14.937 C 156.925 15.207 156.94 15.159 156.652 14.47 C 156.395 13.854 156.371 13.134 156.608 13.134 C 156.702 13.134 156.968 13.311 157.199 13.527 L 157.618 13.92 L 157.525 13.403 C 157.474 13.119 157.473 12.781 157.522 12.652 C 157.633 12.365 157.952 12.347 158.058 12.622 C 158.101 12.734 158.313 13.104 158.529 13.444 L 158.921 14.063 L 159.073 13.287 C 159.264 12.316 159.515 12.208 159.73 13.004 C 159.819 13.336 159.998 13.77 160.127 13.967 L 160.362 14.325 L 160.441 13.99 C 160.485 13.806 160.592 13.631 160.68 13.602 C 160.836 13.55 162.459 15.904 162.996 16.961 C 163.583 18.115 164.016 19.831 164.016 21.003 C 164.016 22.055 164.046 22.171 164.434 22.604 C 164.847 23.065 164.866 23.071 166.007 23.036 C 167.106 23.003 167.214 23.028 168.242 23.567 C 169.307 24.124 169.864 24.605 169.873 24.975 C 169.876 25.088 169.778 25.134 169.628 25.09 C 168.712 24.821 168.284 24.828 167.974 25.119 C 167.801 25.282 167.403 25.499 167.089 25.601 C 166.669 25.739 166.505 25.876 166.471 26.121 C 166.395 26.652 166.811 26.975 167.712 27.084 C 168.156 27.138 168.631 27.24 168.767 27.311 C 168.904 27.382 169.269 27.969 169.579 28.615 C 169.889 29.262 170.565 30.431 171.082 31.214 C 171.599 31.996 172.023 32.72 172.023 32.822 C 172.023 32.925 171.894 33.008 171.737 33.008 C 171.579 33.008 171.451 33.024 171.451 33.044 C 171.451 33.064 171.579 33.418 171.737 33.832 C 172.109 34.811 172.1 34.915 171.654 34.83 C 171.261 34.755 171.267 34.713 171.538 35.689 C 171.675 36.183 171.261 36.097 170.593 35.494 C 169.949 34.912 169.867 35.049 170.239 36.082 C 170.353 36.397 170.446 36.67 170.448 36.69 C 170.449 36.71 170.335 36.726 170.194 36.726 C 170.054 36.726 169.738 36.464 169.492 36.144 L 169.044 35.562 L 169.123 36.144 C 169.208 36.78 169.205 36.784 168.84 36.57 L 168.839 36.57 Z " fill="rgb(0,0,0)"/><path d=" M 34.728 50.215 L 31.823 63.958 L 28.608 63.958 L 25.262 53.561 L 25.205 53.561 L 25.168 53.862 L 25.168 53.862 Q 24.867 55.893 24.547 57.491 L 24.547 57.491 L 23.184 63.958 L 20.599 63.958 L 23.504 50.215 L 26.86 50.215 L 30.056 60.339 L 30.093 60.339 L 30.093 60.339 Q 30.206 59.625 30.46 58.299 L 30.46 58.299 L 30.46 58.299 Q 30.714 56.974 32.152 50.215 L 32.152 50.215 L 34.728 50.215 L 34.728 50.215 L 34.728 50.215 L 34.728 50.215 Z  M 39.278 58.243 L 42.408 58.243 L 42.164 54.953 L 42.164 54.953 Q 42.07 53.721 42.07 52.574 L 42.07 52.574 L 42.07 52.236 L 42.07 52.236 Q 41.656 53.364 41.045 54.624 L 41.045 54.624 L 39.278 58.243 L 39.278 58.243 L 39.278 58.243 L 39.278 58.243 Z  M 54.479 52.64 L 52.091 63.958 L 49.224 63.958 L 51.611 52.64 L 48.302 52.64 L 48.819 50.215 L 58.314 50.215 L 57.797 52.64 L 54.479 52.64 L 54.479 52.64 L 54.479 52.64 L 54.479 52.64 Z  M 64.697 52.64 L 62.309 63.958 L 59.442 63.958 L 61.83 52.64 L 58.521 52.64 L 59.038 50.215 L 68.532 50.215 L 68.015 52.64 L 64.697 52.64 L 64.697 52.64 L 64.697 52.64 L 64.697 52.64 Z  M 75.846 61.552 L 75.338 63.958 L 67.658 63.958 L 70.563 50.215 L 78.253 50.215 L 77.745 52.602 L 72.932 52.602 L 72.302 55.62 L 76.786 55.62 L 76.269 58.008 L 71.785 58.008 L 71.033 61.552 L 75.846 61.552 L 75.846 61.552 L 75.846 61.552 L 75.846 61.552 Z  M 83.366 52.602 L 82.577 56.316 L 83.31 56.316 L 83.31 56.316 Q 84.542 56.316 85.228 55.78 L 85.228 55.78 L 85.228 55.78 Q 85.914 55.244 85.914 54.144 L 85.914 54.144 L 85.914 54.144 Q 85.914 53.373 85.467 52.988 L 85.467 52.988 L 85.467 52.988 Q 85.021 52.602 84.062 52.602 L 84.062 52.602 L 83.366 52.602 L 83.366 52.602 L 83.366 52.602 L 83.366 52.602 Z  M 93.961 58.243 L 97.091 58.243 L 96.847 54.953 L 96.847 54.953 Q 96.753 53.721 96.753 52.574 L 96.753 52.574 L 96.753 52.236 L 96.753 52.236 Q 96.339 53.364 95.728 54.624 L 95.728 54.624 L 93.961 58.243 L 93.961 58.243 L 93.961 58.243 L 93.961 58.243 Z  M 106.37 61.148 L 106.435 61.148 L 106.435 61.148 Q 107.169 59.07 107.47 58.487 L 107.47 58.487 L 111.531 50.215 L 114.501 50.215 L 107.47 63.958 L 104.33 63.958 L 103.136 50.215 L 105.909 50.215 L 106.388 58.487 L 106.388 58.487 Q 106.426 58.91 106.426 59.737 L 106.426 59.737 L 106.426 59.737 Q 106.407 60.706 106.37 61.148 L 106.37 61.148 L 106.37 61.148 L 106.37 61.148 L 106.37 61.148 Z  M 127.389 50.215 L 124.485 63.958 L 121.27 63.958 L 117.923 53.561 L 117.867 53.561 L 117.829 53.862 L 117.829 53.862 Q 117.528 55.893 117.209 57.491 L 117.209 57.491 L 115.845 63.958 L 113.26 63.958 L 116.165 50.215 L 119.521 50.215 L 122.717 60.339 L 122.755 60.339 L 122.755 60.339 Q 122.868 59.625 123.121 58.299 L 123.121 58.299 L 123.121 58.299 Q 123.375 56.974 124.814 50.215 L 124.814 50.215 L 127.389 50.215 L 127.389 50.215 L 127.389 50.215 L 127.389 50.215 Z  M 135.981 61.552 L 135.474 63.958 L 127.794 63.958 L 130.698 50.215 L 138.388 50.215 L 137.88 52.602 L 133.067 52.602 L 132.437 55.62 L 136.922 55.62 L 136.404 58.008 L 131.92 58.008 L 131.168 61.552 L 135.981 61.552 L 135.981 61.552 L 135.981 61.552 L 135.981 61.552 Z  M 152.357 50.215 L 149.452 63.958 L 146.237 63.958 L 142.891 53.561 L 142.834 53.561 L 142.797 53.862 L 142.797 53.862 Q 142.496 55.893 142.176 57.491 L 142.176 57.491 L 140.813 63.958 L 138.228 63.958 L 141.133 50.215 L 144.489 50.215 L 147.685 60.339 L 147.723 60.339 L 147.723 60.339 Q 147.836 59.625 148.089 58.299 L 148.089 58.299 L 148.089 58.299 Q 148.343 56.974 149.781 50.215 L 149.781 50.215 L 152.357 50.215 L 152.357 50.215 L 152.357 50.215 L 152.357 50.215 Z  M 160.949 61.552 L 160.442 63.958 L 152.761 63.958 L 155.666 50.215 L 163.356 50.215 L 162.848 52.602 L 158.035 52.602 L 157.405 55.62 L 161.889 55.62 L 161.372 58.008 L 156.888 58.008 L 156.136 61.552 L 160.949 61.552 L 160.949 61.552 L 160.949 61.552 L 160.949 61.552 Z  M 73.204 74.684 L 71.428 83.039 L 73.078 83.039 L 73.078 83.039 Q 75.848 83.039 77.392 81.833 L 77.392 81.833 L 77.392 81.833 Q 78.936 80.628 78.936 78.153 L 78.936 78.153 L 78.936 78.153 Q 78.936 76.419 77.932 75.551 L 77.932 75.551 L 77.932 75.551 Q 76.927 74.684 74.77 74.684 L 74.77 74.684 L 73.204 74.684 L 73.204 74.684 L 73.204 74.684 L 73.204 74.684 Z  M 94.165 100.235 L 87.714 100.235 L 94.313 69.312 L 100.765 69.312 L 94.165 100.235 L 94.165 100.235 L 94.165 100.235 L 94.165 100.235 Z  M 120.541 91.098 L 120.541 91.098 L 120.541 91.098 Q 120.541 95.518 117.411 98.088 L 117.411 98.088 L 117.411 98.088 Q 114.28 100.658 108.929 100.658 L 108.929 100.658 L 108.929 100.658 Q 104.255 100.658 101.399 98.754 L 101.399 98.754 L 101.399 92.959 L 101.399 92.959 Q 105.481 95.243 108.971 95.243 L 108.971 95.243 L 108.971 95.243 Q 111.34 95.243 112.673 94.344 L 112.673 94.344 L 112.673 94.344 Q 114.005 93.445 114.005 91.88 L 114.005 91.88 L 114.005 91.88 Q 114.005 90.971 113.72 90.283 L 113.72 90.283 L 113.72 90.283 Q 113.434 89.596 112.905 89.004 L 112.905 89.004 L 112.905 89.004 Q 112.377 88.411 110.283 86.846 L 110.283 86.846 L 110.283 86.846 Q 107.364 84.752 106.179 82.701 L 106.179 82.701 L 106.179 82.701 Q 104.995 80.649 104.995 78.28 L 104.995 78.28 L 104.995 78.28 Q 104.995 75.551 106.306 73.405 L 106.306 73.405 L 106.306 73.405 Q 107.618 71.258 110.039 70.063 L 110.039 70.063 L 110.039 70.063 Q 112.461 68.868 115.613 68.868 L 115.613 68.868 L 115.613 68.868 Q 120.203 68.868 124.01 70.962 L 124.01 70.962 L 121.704 75.89 L 121.704 75.89 Q 118.405 74.325 115.613 74.325 L 115.613 74.325 L 115.613 74.325 Q 113.857 74.325 112.736 75.276 L 112.736 75.276 L 112.736 75.276 Q 111.615 76.228 111.615 77.793 L 111.615 77.793 L 111.615 77.793 Q 111.615 79.084 112.313 80.046 L 112.313 80.046 L 112.313 80.046 Q 113.011 81.008 115.444 82.595 L 115.444 82.595 L 115.444 82.595 Q 118.003 84.287 119.272 86.328 L 119.272 86.328 L 119.272 86.328 Q 120.541 88.369 120.541 91.098 L 120.541 91.098 L 120.541 91.098 L 120.541 91.098 Z  M 141.46 84.118 L 147.615 100.235 L 140.466 100.235 L 136.003 87.713 L 133.359 89.194 L 131.053 100.235 L 124.602 100.235 L 131.138 69.312 L 137.61 69.312 L 134.395 84.16 L 137.737 79.824 L 146.388 69.312 L 154.024 69.312 L 141.46 84.118 L 141.46 84.118 L 141.46 84.118 L 141.46 84.118 Z  M 160.475 87.375 L 167.518 87.375 L 166.968 79.972 L 166.968 79.972 Q 166.757 77.201 166.757 74.621 L 166.757 74.621 L 166.757 73.859 L 166.757 73.859 Q 165.826 76.397 164.451 79.232 L 164.451 79.232 L 160.475 87.375 L 160.475 87.375 L 160.475 87.375 L 160.475 87.375 Z  M 74.179 127.222 C 74.178 127.246 74.177 127.27 74.176 127.292 L 74.128 127.158 L 74.179 127.222 L 74.179 127.222 Z  M 42.775 63.958 L 42.549 60.687 L 38.103 60.687 L 36.486 63.958 L 33.478 63.958 L 40.678 50.158 L 44.185 50.158 L 45.567 63.958 L 42.775 63.958 L 42.775 63.958 L 42.775 63.958 L 42.775 63.958 Z  M 83.197 58.685 L 82.079 58.685 L 80.96 63.958 L 78.093 63.958 L 80.998 50.215 L 84.372 50.215 L 84.372 50.215 Q 86.6 50.215 87.719 51.174 L 87.719 51.174 L 87.719 51.174 Q 88.838 52.132 88.838 53.984 L 88.838 53.984 L 88.838 53.984 Q 88.838 55.47 88.057 56.537 L 88.057 56.537 L 88.057 56.537 Q 87.277 57.604 85.811 58.121 L 85.811 58.121 L 88.264 63.958 L 85.143 63.958 L 83.197 58.685 L 83.197 58.685 L 83.197 58.685 L 83.197 58.685 Z  M 97.458 63.958 L 97.232 60.687 L 92.786 60.687 L 91.169 63.958 L 88.161 63.958 L 95.362 50.158 L 98.868 50.158 L 100.25 63.958 L 97.458 63.958 L 97.458 63.958 L 97.458 63.958 L 97.458 63.958 Z  M 72.824 88.369 L 70.307 88.369 L 67.79 100.235 L 61.339 100.235 L 67.874 69.312 L 75.468 69.312 L 75.468 69.312 Q 80.48 69.312 82.997 71.469 L 82.997 71.469 L 82.997 71.469 Q 85.514 73.627 85.514 77.793 L 85.514 77.793 L 85.514 77.793 Q 85.514 81.135 83.759 83.536 L 83.759 83.536 L 83.759 83.536 Q 82.003 85.937 78.704 87.1 L 78.704 87.1 L 84.224 100.235 L 77.202 100.235 L 72.824 88.369 L 72.824 88.369 L 72.824 88.369 L 72.824 88.369 Z  M 168.343 100.235 L 167.835 92.874 L 157.831 92.874 L 154.193 100.235 L 147.424 100.235 L 163.626 69.185 L 171.516 69.185 L 174.625 100.235 L 168.343 100.235 L 168.343 100.235 L 168.343 100.235 L 168.343 100.235 Z  M 173.839 36.57 C 173.701 36.49 173.395 36.09 173.16 35.681 C 172.793 35.045 172.744 35.003 172.818 35.386 C 172.982 36.234 172.488 36.104 172.204 35.224 C 172.128 34.989 171.976 34.796 171.867 34.796 C 171.758 34.796 171.472 34.416 171.233 33.952 C 170.862 33.232 170.61 32.975 169.514 32.2 C 167.553 30.815 167.085 30.378 166.829 29.694 C 166.701 29.354 166.53 28.897 166.449 28.677 C 166.317 28.321 166.268 28.296 165.988 28.446 C 165.815 28.539 165.106 29.153 164.412 29.81 C 163.717 30.468 163.038 31.008 162.901 31.011 C 162.765 31.013 162.222 31.045 161.695 31.081 C 161.142 31.119 160.701 31.087 160.65 31.005 C 160.602 30.927 160.416 30.864 160.236 30.864 C 160.056 30.864 159.796 30.738 159.657 30.585 C 159.443 30.349 159.421 30.153 159.506 29.298 C 159.562 28.743 159.667 28.252 159.738 28.208 C 159.81 28.164 159.962 27.904 160.076 27.631 C 160.32 27.047 161.201 26.588 162.796 26.212 C 163.346 26.082 163.883 25.95 163.988 25.917 C 164.126 25.875 164.074 25.734 163.802 25.411 C 163.124 24.605 162.888 23.93 162.528 21.769 C 162.175 19.653 161.555 17.37 161.29 17.206 C 161.099 17.088 161.115 16.601 161.313 16.535 C 161.419 16.5 161.37 16.279 161.17 15.886 C 160.844 15.247 160.772 14.706 161.014 14.706 C 161.095 14.706 161.32 14.81 161.514 14.937 C 161.925 15.207 161.94 15.159 161.652 14.47 C 161.395 13.854 161.371 13.134 161.608 13.134 C 161.702 13.134 161.968 13.311 162.199 13.527 L 162.618 13.92 L 162.525 13.403 C 162.474 13.119 162.473 12.781 162.522 12.652 C 162.633 12.365 162.952 12.347 163.058 12.622 C 163.101 12.734 163.313 13.104 163.529 13.444 L 163.921 14.063 L 164.073 13.287 C 164.264 12.316 164.515 12.208 164.73 13.004 C 164.819 13.336 164.998 13.77 165.127 13.967 L 165.362 14.325 L 165.441 13.99 C 165.485 13.806 165.592 13.631 165.68 13.602 C 165.836 13.55 167.459 15.904 167.996 16.961 C 168.583 18.115 169.016 19.831 169.016 21.003 C 169.016 22.055 169.046 22.171 169.434 22.604 C 169.847 23.065 169.866 23.071 171.007 23.036 C 172.106 23.003 172.214 23.028 173.242 23.567 C 174.307 24.124 174.864 24.605 174.873 24.975 C 174.876 25.088 174.778 25.134 174.628 25.09 C 173.712 24.821 173.284 24.828 172.974 25.119 C 172.801 25.282 172.403 25.499 172.089 25.601 C 171.669 25.739 171.505 25.876 171.471 26.121 C 171.395 26.652 171.811 26.975 172.712 27.084 C 173.156 27.138 173.631 27.24 173.767 27.311 C 173.904 27.382 174.269 27.969 174.579 28.615 C 174.889 29.262 175.565 30.431 176.082 31.214 C 176.599 31.996 177.023 32.72 177.023 32.822 C 177.023 32.925 176.894 33.008 176.737 33.008 C 176.579 33.008 176.451 33.024 176.451 33.044 C 176.451 33.064 176.579 33.418 176.737 33.832 C 177.109 34.811 177.1 34.915 176.654 34.83 C 176.261 34.755 176.267 34.713 176.538 35.689 C 176.675 36.183 176.261 36.097 175.593 35.494 C 174.949 34.912 174.867 35.049 175.239 36.082 C 175.353 36.397 175.446 36.67 175.448 36.69 C 175.449 36.71 175.335 36.726 175.194 36.726 C 175.054 36.726 174.738 36.464 174.492 36.144 L 174.044 35.562 L 174.123 36.144 C 174.208 36.78 174.205 36.784 173.84 36.57 L 173.839 36.57 Z " fill-rule="evenodd" fill="rgb(0,0,0)"/><path d=" M 34.728 50.215 L 31.823 63.958 L 28.608 63.958 L 25.262 53.561 L 25.205 53.561 L 25.168 53.862 L 25.168 53.862 Q 24.867 55.893 24.547 57.491 L 24.547 57.491 L 23.184 63.958 L 20.599 63.958 L 23.504 50.215 L 26.86 50.215 L 30.056 60.339 L 30.093 60.339 L 30.093 60.339 Q 30.206 59.625 30.46 58.299 L 30.46 58.299 L 30.46 58.299 Q 30.714 56.974 32.152 50.215 L 32.152 50.215 L 34.728 50.215 L 34.728 50.215 L 34.728 50.215 L 34.728 50.215 Z  M 39.278 58.243 L 42.408 58.243 L 42.164 54.953 L 42.164 54.953 Q 42.07 53.721 42.07 52.574 L 42.07 52.574 L 42.07 52.236 L 42.07 52.236 Q 41.656 53.364 41.045 54.624 L 41.045 54.624 L 39.278 58.243 L 39.278 58.243 L 39.278 58.243 L 39.278 58.243 Z  M 54.479 52.64 L 52.091 63.958 L 49.224 63.958 L 51.611 52.64 L 48.302 52.64 L 48.819 50.215 L 58.314 50.215 L 57.797 52.64 L 54.479 52.64 L 54.479 52.64 L 54.479 52.64 L 54.479 52.64 Z  M 64.697 52.64 L 62.309 63.958 L 59.442 63.958 L 61.83 52.64 L 58.521 52.64 L 59.038 50.215 L 68.532 50.215 L 68.015 52.64 L 64.697 52.64 L 64.697 52.64 L 64.697 52.64 L 64.697 52.64 Z  M 75.846 61.552 L 75.338 63.958 L 67.658 63.958 L 70.563 50.215 L 78.253 50.215 L 77.745 52.602 L 72.932 52.602 L 72.302 55.62 L 76.786 55.62 L 76.269 58.008 L 71.785 58.008 L 71.033 61.552 L 75.846 61.552 L 75.846 61.552 L 75.846 61.552 L 75.846 61.552 Z  M 83.366 52.602 L 82.577 56.316 L 83.31 56.316 L 83.31 56.316 Q 84.542 56.316 85.228 55.78 L 85.228 55.78 L 85.228 55.78 Q 85.914 55.244 85.914 54.144 L 85.914 54.144 L 85.914 54.144 Q 85.914 53.373 85.467 52.988 L 85.467 52.988 L 85.467 52.988 Q 85.021 52.602 84.062 52.602 L 84.062 52.602 L 83.366 52.602 L 83.366 52.602 L 83.366 52.602 L 83.366 52.602 Z  M 93.961 58.243 L 97.091 58.243 L 96.847 54.953 L 96.847 54.953 Q 96.753 53.721 96.753 52.574 L 96.753 52.574 L 96.753 52.236 L 96.753 52.236 Q 96.339 53.364 95.728 54.624 L 95.728 54.624 L 93.961 58.243 L 93.961 58.243 L 93.961 58.243 L 93.961 58.243 Z  M 106.37 61.148 L 106.435 61.148 L 106.435 61.148 Q 107.169 59.07 107.47 58.487 L 107.47 58.487 L 111.531 50.215 L 114.501 50.215 L 107.47 63.958 L 104.33 63.958 L 103.136 50.215 L 105.909 50.215 L 106.388 58.487 L 106.388 58.487 Q 106.426 58.91 106.426 59.737 L 106.426 59.737 L 106.426 59.737 Q 106.407 60.706 106.37 61.148 L 106.37 61.148 L 106.37 61.148 L 106.37 61.148 L 106.37 61.148 Z  M 127.389 50.215 L 124.485 63.958 L 121.27 63.958 L 117.923 53.561 L 117.867 53.561 L 117.829 53.862 L 117.829 53.862 Q 117.528 55.893 117.209 57.491 L 117.209 57.491 L 115.845 63.958 L 113.26 63.958 L 116.165 50.215 L 119.521 50.215 L 122.717 60.339 L 122.755 60.339 L 122.755 60.339 Q 122.868 59.625 123.121 58.299 L 123.121 58.299 L 123.121 58.299 Q 123.375 56.974 124.814 50.215 L 124.814 50.215 L 127.389 50.215 L 127.389 50.215 L 127.389 50.215 L 127.389 50.215 Z  M 135.981 61.552 L 135.474 63.958 L 127.794 63.958 L 130.698 50.215 L 138.388 50.215 L 137.88 52.602 L 133.067 52.602 L 132.437 55.62 L 136.922 55.62 L 136.404 58.008 L 131.92 58.008 L 131.168 61.552 L 135.981 61.552 L 135.981 61.552 L 135.981 61.552 L 135.981 61.552 Z  M 152.357 50.215 L 149.452 63.958 L 146.237 63.958 L 142.891 53.561 L 142.834 53.561 L 142.797 53.862 L 142.797 53.862 Q 142.496 55.893 142.176 57.491 L 142.176 57.491 L 140.813 63.958 L 138.228 63.958 L 141.133 50.215 L 144.489 50.215 L 147.685 60.339 L 147.723 60.339 L 147.723 60.339 Q 147.836 59.625 148.089 58.299 L 148.089 58.299 L 148.089 58.299 Q 148.343 56.974 149.781 50.215 L 149.781 50.215 L 152.357 50.215 L 152.357 50.215 L 152.357 50.215 L 152.357 50.215 Z  M 160.949 61.552 L 160.442 63.958 L 152.761 63.958 L 155.666 50.215 L 163.356 50.215 L 162.848 52.602 L 158.035 52.602 L 157.405 55.62 L 161.889 55.62 L 161.372 58.008 L 156.888 58.008 L 156.136 61.552 L 160.949 61.552 L 160.949 61.552 L 160.949 61.552 L 160.949 61.552 Z  M 73.204 74.684 L 71.428 83.039 L 73.078 83.039 L 73.078 83.039 Q 75.848 83.039 77.392 81.833 L 77.392 81.833 L 77.392 81.833 Q 78.936 80.628 78.936 78.153 L 78.936 78.153 L 78.936 78.153 Q 78.936 76.419 77.932 75.551 L 77.932 75.551 L 77.932 75.551 Q 76.927 74.684 74.77 74.684 L 74.77 74.684 L 73.204 74.684 L 73.204 74.684 L 73.204 74.684 L 73.204 74.684 Z  M 94.165 100.235 L 87.714 100.235 L 94.313 69.312 L 100.765 69.312 L 94.165 100.235 L 94.165 100.235 L 94.165 100.235 L 94.165 100.235 Z  M 120.541 91.098 L 120.541 91.098 L 120.541 91.098 Q 120.541 95.518 117.411 98.088 L 117.411 98.088 L 117.411 98.088 Q 114.28 100.658 108.929 100.658 L 108.929 100.658 L 108.929 100.658 Q 104.255 100.658 101.399 98.754 L 101.399 98.754 L 101.399 92.959 L 101.399 92.959 Q 105.481 95.243 108.971 95.243 L 108.971 95.243 L 108.971 95.243 Q 111.34 95.243 112.673 94.344 L 112.673 94.344 L 112.673 94.344 Q 114.005 93.445 114.005 91.88 L 114.005 91.88 L 114.005 91.88 Q 114.005 90.971 113.72 90.283 L 113.72 90.283 L 113.72 90.283 Q 113.434 89.596 112.905 89.004 L 112.905 89.004 L 112.905 89.004 Q 112.377 88.411 110.283 86.846 L 110.283 86.846 L 110.283 86.846 Q 107.364 84.752 106.179 82.701 L 106.179 82.701 L 106.179 82.701 Q 104.995 80.649 104.995 78.28 L 104.995 78.28 L 104.995 78.28 Q 104.995 75.551 106.306 73.405 L 106.306 73.405 L 106.306 73.405 Q 107.618 71.258 110.039 70.063 L 110.039 70.063 L 110.039 70.063 Q 112.461 68.868 115.613 68.868 L 115.613 68.868 L 115.613 68.868 Q 120.203 68.868 124.01 70.962 L 124.01 70.962 L 121.704 75.89 L 121.704 75.89 Q 118.405 74.325 115.613 74.325 L 115.613 74.325 L 115.613 74.325 Q 113.857 74.325 112.736 75.276 L 112.736 75.276 L 112.736 75.276 Q 111.615 76.228 111.615 77.793 L 111.615 77.793 L 111.615 77.793 Q 111.615 79.084 112.313 80.046 L 112.313 80.046 L 112.313 80.046 Q 113.011 81.008 115.444 82.595 L 115.444 82.595 L 115.444 82.595 Q 118.003 84.287 119.272 86.328 L 119.272 86.328 L 119.272 86.328 Q 120.541 88.369 120.541 91.098 L 120.541 91.098 L 120.541 91.098 L 120.541 91.098 Z  M 141.46 84.118 L 147.615 100.235 L 140.466 100.235 L 136.003 87.713 L 133.359 89.194 L 131.053 100.235 L 124.602 100.235 L 131.138 69.312 L 137.61 69.312 L 134.395 84.16 L 137.737 79.824 L 146.388 69.312 L 154.024 69.312 L 141.46 84.118 L 141.46 84.118 L 141.46 84.118 L 141.46 84.118 Z  M 160.475 87.375 L 167.518 87.375 L 166.968 79.972 L 166.968 79.972 Q 166.757 77.201 166.757 74.621 L 166.757 74.621 L 166.757 73.859 L 166.757 73.859 Q 165.826 76.397 164.451 79.232 L 164.451 79.232 L 160.475 87.375 L 160.475 87.375 L 160.475 87.375 L 160.475 87.375 Z  M 74.179 127.222 C 74.178 127.246 74.177 127.27 74.176 127.292 L 74.128 127.158 L 74.179 127.222 L 74.179 127.222 Z  M 42.775 63.958 L 42.549 60.687 L 38.103 60.687 L 36.486 63.958 L 33.478 63.958 L 40.678 50.158 L 44.185 50.158 L 45.567 63.958 L 42.775 63.958 L 42.775 63.958 L 42.775 63.958 L 42.775 63.958 Z  M 83.197 58.685 L 82.079 58.685 L 80.96 63.958 L 78.093 63.958 L 80.998 50.215 L 84.372 50.215 L 84.372 50.215 Q 86.6 50.215 87.719 51.174 L 87.719 51.174 L 87.719 51.174 Q 88.838 52.132 88.838 53.984 L 88.838 53.984 L 88.838 53.984 Q 88.838 55.47 88.057 56.537 L 88.057 56.537 L 88.057 56.537 Q 87.277 57.604 85.811 58.121 L 85.811 58.121 L 88.264 63.958 L 85.143 63.958 L 83.197 58.685 L 83.197 58.685 L 83.197 58.685 L 83.197 58.685 Z  M 97.458 63.958 L 97.232 60.687 L 92.786 60.687 L 91.169 63.958 L 88.161 63.958 L 95.362 50.158 L 98.868 50.158 L 100.25 63.958 L 97.458 63.958 L 97.458 63.958 L 97.458 63.958 L 97.458 63.958 Z  M 72.824 88.369 L 70.307 88.369 L 67.79 100.235 L 61.339 100.235 L 67.874 69.312 L 75.468 69.312 L 75.468 69.312 Q 80.48 69.312 82.997 71.469 L 82.997 71.469 L 82.997 71.469 Q 85.514 73.627 85.514 77.793 L 85.514 77.793 L 85.514 77.793 Q 85.514 81.135 83.759 83.536 L 83.759 83.536 L 83.759 83.536 Q 82.003 85.937 78.704 87.1 L 78.704 87.1 L 84.224 100.235 L 77.202 100.235 L 72.824 88.369 L 72.824 88.369 L 72.824 88.369 L 72.824 88.369 Z  M 168.343 100.235 L 167.835 92.874 L 157.831 92.874 L 154.193 100.235 L 147.424 100.235 L 163.626 69.185 L 171.516 69.185 L 174.625 100.235 L 168.343 100.235 L 168.343 100.235 L 168.343 100.235 L 168.343 100.235 Z  M 173.839 36.57 C 173.701 36.49 173.395 36.09 173.16 35.681 C 172.793 35.045 172.744 35.003 172.818 35.386 C 172.982 36.234 172.488 36.104 172.204 35.224 C 172.128 34.989 171.976 34.796 171.867 34.796 C 171.758 34.796 171.472 34.416 171.233 33.952 C 170.862 33.232 170.61 32.975 169.514 32.2 C 167.553 30.815 167.085 30.378 166.829 29.694 C 166.701 29.354 166.53 28.897 166.449 28.677 C 166.317 28.321 166.268 28.296 165.988 28.446 C 165.815 28.539 165.106 29.153 164.412 29.81 C 163.717 30.468 163.038 31.008 162.901 31.011 C 162.765 31.013 162.222 31.045 161.695 31.081 C 161.142 31.119 160.701 31.087 160.65 31.005 C 160.602 30.927 160.416 30.864 160.236 30.864 C 160.056 30.864 159.796 30.738 159.657 30.585 C 159.443 30.349 159.421 30.153 159.506 29.298 C 159.562 28.743 159.667 28.252 159.738 28.208 C 159.81 28.164 159.962 27.904 160.076 27.631 C 160.32 27.047 161.201 26.588 162.796 26.212 C 163.346 26.082 163.883 25.95 163.988 25.917 C 164.126 25.875 164.074 25.734 163.802 25.411 C 163.124 24.605 162.888 23.93 162.528 21.769 C 162.175 19.653 161.555 17.37 161.29 17.206 C 161.099 17.088 161.115 16.601 161.313 16.535 C 161.419 16.5 161.37 16.279 161.17 15.886 C 160.844 15.247 160.772 14.706 161.014 14.706 C 161.095 14.706 161.32 14.81 161.514 14.937 C 161.925 15.207 161.94 15.159 161.652 14.47 C 161.395 13.854 161.371 13.134 161.608 13.134 C 161.702 13.134 161.968 13.311 162.199 13.527 L 162.618 13.92 L 162.525 13.403 C 162.474 13.119 162.473 12.781 162.522 12.652 C 162.633 12.365 162.952 12.347 163.058 12.622 C 163.101 12.734 163.313 13.104 163.529 13.444 L 163.921 14.063 L 164.073 13.287 C 164.264 12.316 164.515 12.208 164.73 13.004 C 164.819 13.336 164.998 13.77 165.127 13.967 L 165.362 14.325 L 165.441 13.99 C 165.485 13.806 165.592 13.631 165.68 13.602 C 165.836 13.55 167.459 15.904 167.996 16.961 C 168.583 18.115 169.016 19.831 169.016 21.003 C 169.016 22.055 169.046 22.171 169.434 22.604 C 169.847 23.065 169.866 23.071 171.007 23.036 C 172.106 23.003 172.214 23.028 173.242 23.567 C 174.307 24.124 174.864 24.605 174.873 24.975 C 174.876 25.088 174.778 25.134 174.628 25.09 C 173.712 24.821 173.284 24.828 172.974 25.119 C 172.801 25.282 172.403 25.499 172.089 25.601 C 171.669 25.739 171.505 25.876 171.471 26.121 C 171.395 26.652 171.811 26.975 172.712 27.084 C 173.156 27.138 173.631 27.24 173.767 27.311 C 173.904 27.382 174.269 27.969 174.579 28.615 C 174.889 29.262 175.565 30.431 176.082 31.214 C 176.599 31.996 177.023 32.72 177.023 32.822 C 177.023 32.925 176.894 33.008 176.737 33.008 C 176.579 33.008 176.451 33.024 176.451 33.044 C 176.451 33.064 176.579 33.418 176.737 33.832 C 177.109 34.811 177.1 34.915 176.654 34.83 C 176.261 34.755 176.267 34.713 176.538 35.689 C 176.675 36.183 176.261 36.097 175.593 35.494 C 174.949 34.912 174.867 35.049 175.239 36.082 C 175.353 36.397 175.446 36.67 175.448 36.69 C 175.449 36.71 175.335 36.726 175.194 36.726 C 175.054 36.726 174.738 36.464 174.492 36.144 L 174.044 35.562 L 174.123 36.144 C 174.208 36.78 174.205 36.784 173.84 36.57 L 173.839 36.57 Z " fill-rule="evenodd" fill="rgb(0,0,0)"/></g></svg>
